#N canvas 83 88 1097 435 10;
#X obj 815 18 loadbang;
#X msg 830 37 \; pd dsp 1;
#N canvas 0 50 450 250 (subpatch) 0;
#X array sweep 534 float 0;
#X coords 0 60 533 0 533 360 1 0 0;
#X restore 19 18 graph;
#X floatatom 638 100 5 -1 533 1 counter - -, f 5;
#X obj 609 100 +;
#X obj 609 184 pow 0;
#X text 310 378 1k;
#X text 70 378 46;
#X text 127 378 100;
#X text 188 378 215;
#X text 247 378 464;
#X text 366 378 2.2k;
#X text 426 378 4.6k;
#X text 488 378 10k;
#X msg 598 58 1;
#X msg 820 101 \; sweep yticks 0 10 1;
#X obj 641 389 tabwrite sweep;
#X obj 609 226 osc~ 20;
#X obj 609 368 t b f;
#X obj 559 142 spigot;
#X obj 609 121 t b f f f;
#X msg 815 133 \; sweep ylabel -0.25 10 20 30 40 50 60;
#X obj 609 347 clip 0 60;
#X msg 638 79 -1;
#X obj 598 36 t b b;
#X obj 598 18 bng 15 250 50 0 empty empty START 17 7 0 10 -262144 -1
-1;
#X obj 609 205 * 21.5443;
#X msg 609 163 1.01287;
#X obj 609 305 *~ 0.00044722;
#X msg 825 69 \; sweep xticks 0 60 1;
#X text 540 378 20k;
#X obj 609 326 env~ 2048;
#X text 10 378 22;
#X obj 669 142 < 533;
#X floatatom 641 39 3 1 10 1 count_up_value - -, f 3;
#X obj 609 79 f 1;
#N canvas 638 250 450 300 filter 0;
#X obj 48 35 inlet~;
#X obj 48 229 outlet~;
#X obj 48 100 hip~ 100;
#X obj 48 161 lop~ 2200;
#X connect 0 0 2 0;
#X connect 2 0 3 0;
#X connect 3 0 1 0;
#X restore 609 264 pd filter;
#X text 665 163 =10^(1/180);
#X text 676 347 cut for canvas;
#X text 704 305 adjust to 30dB;
#X text 708 142 stop count;
#X text 677 199 initial frequency =10*10^(60/180), f 17;
#X connect 0 0 1 0;
#X connect 0 0 29 0;
#X connect 0 0 15 0;
#X connect 0 0 21 0;
#X connect 3 0 4 1;
#X connect 4 0 3 0;
#X connect 4 0 20 0;
#X connect 5 0 26 0;
#X connect 14 0 19 1;
#X connect 17 0 36 0;
#X connect 18 0 19 0;
#X connect 18 1 16 0;
#X connect 19 0 35 0;
#X connect 20 0 27 0;
#X connect 20 1 5 1;
#X connect 20 2 16 1;
#X connect 20 3 33 0;
#X connect 22 0 18 0;
#X connect 23 0 3 0;
#X connect 24 0 14 0;
#X connect 24 1 23 0;
#X connect 25 0 24 0;
#X connect 26 0 17 0;
#X connect 27 0 5 0;
#X connect 28 0 31 0;
#X connect 31 0 22 0;
#X connect 33 0 19 1;
#X connect 34 0 35 1;
#X connect 35 0 4 0;
#X connect 36 0 28 0;
