#N canvas 312 50 423 548 10;
#X obj 18 518 dac~;
#X obj 341 13 loadbang;
#X msg 341 34 \; pd dsp 1;
#X obj 17 37 spigot~, f 8;
#X obj 70 18 tgl 15 0 empty empty empty 17 7 0 10 -262144 -1 -1 0 1
;
#X floatatom 200 222 5 20 2000 1 delay_time(20~2000ms) - -, f 5;
#X floatatom 226 303 5 0 100 1 feedback(0~100) - -, f 5;
#X obj 71 492 +~;
#X obj 109 59 +~;
#X floatatom 177 384 5 -30 0 1 delay_vol(-30~0dB) - -, f 5;
#X obj 177 402 + 100;
#X obj 177 423 dbtorms;
#X obj 138 444 *~ 0.5;
#X obj 201 363 *~ 0;
#X obj 78 468 spigot~, f 8;
#X text 137 468 (tail off);
#N canvas 749 137 334 361 tap 1;
#X obj 13 107 timer;
#X floatatom 13 191 5 0 0 1 t1 - -, f 5;
#X floatatom 42 65 5 0 4 1 count_1.2.3.4.2.3.4.2.3.4... - -, f 5;
#X msg 13 44 1, f 1;
#X obj 13 65 +;
#X obj 159 10 sel 4;
#X obj 222 10 delay 2000;
#X obj 13 170 spigot;
#X obj 52 149 == 2;
#X obj 202 149 == 4;
#X obj 127 149 == 3;
#X floatatom 88 191 5 0 0 1 t2 - -, f 5;
#X obj 88 170 spigot;
#X floatatom 163 191 5 0 0 1 t3 - -, f 5;
#X obj 163 170 spigot;
#X msg 159 31 1, f 1;
#X obj 13 251 +;
#X obj 13 272 +;
#X obj 13 311 /;
#X floatatom 270 170 5 0 0 0 - - -, f 5;
#X msg 241 149 1, f 1;
#X obj 241 170 +;
#X msg 222 30 0, f 1;
#X obj 44 45 r reset;
#X obj 270 149 r reset;
#X floatatom 241 254 5 0 0 3 divide_sum - -, f 5;
#X floatatom 13 293 5 0 0 1 sum - -, f 5;
#X obj 88 209 t b f;
#X obj 163 209 t b f;
#X msg 241 212 1, f 1;
#X msg 287 212 3, f 1;
#X msg 264 212 2, f 1;
#X obj 241 191 sel 2 3;
#X obj 222 50 s reset;
#X obj 120 255 r reset;
#X obj 13 86 t b b f b;
#X obj 13 23 inlet;
#X obj 13 332 outlet;
#X text 6 3 pd tap;
#X connect 0 0 14 0;
#X connect 0 0 12 0;
#X connect 0 0 7 0;
#X connect 1 0 16 0;
#X connect 2 0 4 1;
#X connect 3 0 4 0;
#X connect 4 0 2 0;
#X connect 4 0 35 0;
#X connect 5 0 15 0;
#X connect 6 0 22 0;
#X connect 7 0 1 0;
#X connect 8 0 7 1;
#X connect 9 0 14 1;
#X connect 10 0 12 1;
#X connect 11 0 27 0;
#X connect 12 0 11 0;
#X connect 13 0 28 0;
#X connect 14 0 13 0;
#X connect 15 0 2 0;
#X connect 16 0 17 0;
#X connect 17 0 26 0;
#X connect 18 0 37 0;
#X connect 19 0 21 1;
#X connect 20 0 21 0;
#X connect 21 0 19 0;
#X connect 21 0 32 0;
#X connect 22 0 33 0;
#X connect 23 0 2 0;
#X connect 24 0 19 0;
#X connect 25 0 18 1;
#X connect 26 0 18 0;
#X connect 27 0 1 0;
#X connect 27 1 16 1;
#X connect 28 0 1 0;
#X connect 28 1 17 1;
#X connect 29 0 25 0;
#X connect 30 0 25 0;
#X connect 31 0 25 0;
#X connect 32 0 29 0;
#X connect 32 1 31 0;
#X connect 32 2 30 0;
#X connect 34 0 17 1;
#X connect 34 0 16 1;
#X connect 35 0 0 0;
#X connect 35 1 0 1;
#X connect 35 2 5 0;
#X connect 35 2 9 0;
#X connect 35 2 10 0;
#X connect 35 2 8 0;
#X connect 35 3 6 0;
#X connect 35 3 20 0;
#X connect 36 0 3 0;
#X restore 168 133 pd tap;
#X obj 168 114 bng 15 250 50 0 empty empty TAP 0 -8 0 10 -262144 -1
-1;
#X obj 218 114 vradio 13 1 0 3 empty empty division 0 -8 0 10 -262144
-1 -1 0;
#X obj 218 157 sel 0 1;
#X msg 218 178 1, f 1;
#X msg 271 178 0.5;
#X msg 234 178 0.75;
#X obj 200 201 * 1;
#X obj 226 321 pow 0.4;
#X obj 226 342 * 0.15;
#X obj 200 261 hip~ 200;
#X obj 109 80 delwrite~ \$0-delay 2000;
#X obj 200 240 delread~ \$0-delay 20;
#X obj 200 282 lop~ 2000;
#X text 180 506 [spigot~] needs two externals: libdir \, unauthorized
, f 30;
#X obj 17 16 adc~;
#X text 231 113 1 (quarter note) 3/4(dotted 8th note) 1/2(8th note)
, f 20;
#X connect 1 0 2 0;
#X connect 3 0 0 0;
#X connect 3 0 0 1;
#X connect 3 1 7 0;
#X connect 3 1 8 0;
#X connect 4 0 3 1;
#X connect 4 0 14 1;
#X connect 5 0 28 0;
#X connect 6 0 24 0;
#X connect 7 0 0 0;
#X connect 7 0 0 1;
#X connect 8 0 27 0;
#X connect 9 0 10 0;
#X connect 10 0 11 0;
#X connect 11 0 12 1;
#X connect 12 0 14 0;
#X connect 13 0 8 1;
#X connect 14 1 7 1;
#X connect 16 0 23 0;
#X connect 17 0 16 0;
#X connect 18 0 19 0;
#X connect 19 0 20 0;
#X connect 19 1 22 0;
#X connect 19 2 21 0;
#X connect 20 0 23 1;
#X connect 21 0 23 1;
#X connect 22 0 23 1;
#X connect 23 0 5 0;
#X connect 24 0 25 0;
#X connect 25 0 13 1;
#X connect 26 0 29 0;
#X connect 28 0 26 0;
#X connect 29 0 12 0;
#X connect 29 0 13 0;
#X connect 31 0 3 0;
