#N canvas 28 51 356 468 10;
#X obj 14 436 dac~;
#X obj 16 35 spigot~, f 8;
#X obj 69 16 tgl 15 0 empty empty empty 17 7 0 10 -262144 -1 -1 0 1
;
#X obj 87 292 vd~ \$0-vib;
#X obj 88 174 phasor~ 5;
#X floatatom 197 117 5 100 3000 1 rate(100~3000ms) - -, f 5;
#X obj 88 153 expr 1000/$f1;
#X floatatom 211 135 5 1 100 1 depth(1~100) - -, f 5;
#X obj 243 195 * 0.000291;
#X obj 211 174 t b f;
#X obj 197 195 f 200;
#X obj 197 216 * 0.001;
#X obj 69 313 +~;
#X obj 95 56 delwrite~ \$0-vib 100;
#X obj 87 271 +~ 3;
#X obj 211 153 * 0.25;
#X text 93 225 triangle wave;
#X obj 108 373 dbtorms;
#X floatatom 108 334 5 -10 10 1 vol(-10~+10dB) - -, f 5;
#X obj 108 352 + 100;
#X obj 95 77 hradio 17 1 1 2 empty empty vibrato/chorus 38 10 0 11
-262144 -1 -1 1;
#X obj 70 98 *~ 1;
#X obj 69 394 *~ 0.7;
#X obj 87 250 *~ 0.5;
#X obj 88 195 expr~ 2*abs($v1-0.5), f 14;
#X obj 16 14 adc~;
#X text 68 423 [spigot~] needs two externals: libdir \, unauthorized
, f 30;
#X obj 274 14 loadbang;
#X msg 274 35 \; pd dsp 1;
#X obj 200 98 hsl 64 15 100 3000 1 0 empty empty empty -2 -8 0 10 -262144
-1 -1 0 1;
#X connect 1 0 0 0;
#X connect 1 0 0 1;
#X connect 1 1 13 0;
#X connect 1 1 21 0;
#X connect 2 0 1 1;
#X connect 3 0 12 1;
#X connect 4 0 24 0;
#X connect 5 0 6 0;
#X connect 5 0 10 0;
#X connect 6 0 4 0;
#X connect 7 0 15 0;
#X connect 8 0 11 1;
#X connect 9 0 10 0;
#X connect 9 1 8 0;
#X connect 10 0 11 0;
#X connect 11 0 23 1;
#X connect 12 0 22 0;
#X connect 14 0 3 0;
#X connect 15 0 9 0;
#X connect 17 0 22 1;
#X connect 18 0 19 0;
#X connect 19 0 17 0;
#X connect 20 0 21 1;
#X connect 21 0 12 0;
#X connect 22 0 0 0;
#X connect 22 0 0 1;
#X connect 23 0 14 0;
#X connect 24 0 23 0;
#X connect 25 0 1 0;
#X connect 27 0 28 0;
#X connect 29 0 5 0;
