#N canvas 73 50 393 398 10;
#X obj 28 357 dac~;
#X obj 298 234 loadbang;
#X msg 298 255 \; pd dsp 1;
#X obj 28 40 spigot~, f 8;
#X obj 81 21 tgl 15 0 empty empty empty 17 7 0 10 -262144 -1 -1 1 1
;
#X obj 100 66 rzero_rev~;
#X obj 82 234 +~;
#X obj 100 87 rpole~;
#X obj 100 108 rzero_rev~;
#X obj 100 129 rpole~;
#X obj 100 150 rzero_rev~;
#X obj 100 171 rpole~;
#X obj 100 192 rzero_rev~;
#X obj 100 213 rpole~;
#X obj 121 294 dbtorms;
#X floatatom 121 255 5 -10 10 1 vol(-10~+10dB) - -, f 5;
#X obj 298 61 loadbang;
#X obj 298 82 samplerate~;
#X floatatom 199 43 5 100 3000 1 rate(100~3000ms) - -, f 5;
#X obj 199 61 expr 1000/$f1;
#X obj 199 82 phasor~ 1;
#X obj 202 24 hsl 64 15 100 3000 1 0 empty empty empty -2 -8 0 10 -262144
-1 -1 0 1;
#X obj 199 150 expr~ 2-cos($v1)-sqrt(pow(2-cos($v1) \, 2)-1), f 19
;
#X obj 199 103 expr~ 6.283*150*pow(15 \, 2*abs($v1-0.5))/$f2, f 19
;
#X obj 121 273 + 97;
#X obj 28 19 adc~;
#X text 81 344 [spigot~] needs two externals: libdir \, unauthorized
, f 30;
#X obj 82 315 *~ 0.7;
#X connect 1 0 2 0;
#X connect 3 0 0 0;
#X connect 3 0 0 1;
#X connect 3 1 5 0;
#X connect 3 1 6 0;
#X connect 4 0 3 1;
#X connect 5 0 7 0;
#X connect 6 0 27 0;
#X connect 7 0 8 0;
#X connect 8 0 9 0;
#X connect 9 0 10 0;
#X connect 10 0 11 0;
#X connect 11 0 12 0;
#X connect 12 0 13 0;
#X connect 13 0 6 1;
#X connect 14 0 27 1;
#X connect 15 0 24 0;
#X connect 16 0 17 0;
#X connect 17 0 23 1;
#X connect 18 0 19 0;
#X connect 19 0 20 0;
#X connect 20 0 23 0;
#X connect 21 0 18 0;
#X connect 22 0 5 1;
#X connect 22 0 7 1;
#X connect 22 0 8 1;
#X connect 22 0 9 1;
#X connect 22 0 10 1;
#X connect 22 0 11 1;
#X connect 22 0 12 1;
#X connect 22 0 13 1;
#X connect 23 0 22 0;
#X connect 24 0 14 0;
#X connect 25 0 3 0;
#X connect 27 0 0 0;
#X connect 27 0 0 1;
