#N canvas 323 51 368 438 10;
#X obj 21 409 dac~;
#X obj 274 18 loadbang;
#X msg 274 39 \; pd dsp 1;
#X obj 22 39 spigot~, f 8;
#X obj 75 20 tgl 15 0 empty empty empty 17 7 0 10 -262144 -1 -1 0 1
;
#X obj 75 367 *~ 1;
#X obj 76 286 vcf~ 10;
#X obj 100 265 line~;
#X obj 153 202 samplerate~;
#X obj 153 181 loadbang;
#X obj 100 244 pack f f;
#X obj 153 223 expr 512000/$f1;
#X obj 100 118 +;
#X obj 100 58 env~ 1024;
#X obj 118 97 * 0.5;
#X obj 100 346 dbtorms;
#X obj 100 139 clip 90 100;
#X obj 225 100 nbx 3 14 3 30 0 1 empty empty range(3~30dB) 42 7 0 11
-261234 -1 -1 10 256;
#X obj 118 79 nbx 3 14 0 100 0 1 empty empty sens(0~100) 42 7 0 11
-262130 -1 -1 30 256;
#X obj 100 307 nbx 3 14 -20 20 0 1 empty empty vol(-20~+20dB) 42 7
0 11 -204786 -1 -1 0 256;
#X obj 100 160 expr 2200*pow(0.2 \, (100-$f1)/$f2);
#X obj 137 118 expr 100-$f1;
#X obj 100 325 + 115;
#X obj 22 18 adc~;
#X text 74 396 [spigot~] needs two externals: libdir \, unauthorized
, f 30;
#X connect 1 0 2 0;
#X connect 3 0 0 0;
#X connect 3 0 0 1;
#X connect 3 1 6 0;
#X connect 3 1 13 0;
#X connect 4 0 3 1;
#X connect 5 0 0 0;
#X connect 5 0 0 1;
#X connect 6 0 5 0;
#X connect 7 0 6 1;
#X connect 8 0 11 0;
#X connect 9 0 8 0;
#X connect 10 0 7 0;
#X connect 11 0 10 1;
#X connect 12 0 16 0;
#X connect 13 0 12 0;
#X connect 14 0 12 1;
#X connect 15 0 5 1;
#X connect 16 0 20 0;
#X connect 17 0 20 1;
#X connect 17 0 21 0;
#X connect 18 0 14 0;
#X connect 19 0 22 0;
#X connect 20 0 10 0;
#X connect 21 0 16 1;
#X connect 22 0 15 0;
#X connect 23 0 3 0;
