#N canvas 270 127 437 401 10;
#X obj 18 371 dac~;
#X obj 353 14 loadbang;
#X msg 353 35 \; pd dsp 1;
#X obj 19 35 spigot~, f 8;
#X obj 72 16 tgl 15 0 empty empty empty 17 7 0 10 -262144 -1 -1 1 1
;
#X obj 73 329 *~;
#X msg 108 245 set 0;
#X obj 266 224 change 0;
#X msg 266 140 1, f 2;
#X msg 144 140 0, f 2;
#X msg 155 161 1, f 2;
#X obj 91 308 line~;
#X obj 266 203 spigot 1;
#X obj 91 56 env~ 256;
#X obj 155 59 nbx 3 14 10 100 0 1 empty empty threshold(10~100dB) 42
7 0 11 -232576 -1 -1 50 256;
#X text 190 199 trigger debounce time, f 8;
#X text 365 199 rest debounce time, f 8;
#X text 130 266 decay;
#X text 305 266 attack;
#X msg 319 140 0, f 2;
#X msg 330 161 1, f 2;
#X obj 91 203 spigot 1;
#X text 224 109 trigger;
#X text 95 109 rest;
#X obj 91 77 moses 50;
#X msg 91 140 1, f 2;
#X msg 283 245 set 0;
#X obj 91 224 change 0;
#X obj 330 182 pipe 20;
#X obj 155 182 pipe 20;
#X msg 91 266 0 500;
#X msg 266 266 1 0.1;
#X obj 19 14 adc~;
#X text 72 358 [spigot~] needs two externals: libdir \, unauthorized
, f 30;
#X connect 1 0 2 0;
#X connect 3 0 0 0;
#X connect 3 0 0 1;
#X connect 3 1 5 0;
#X connect 3 1 13 0;
#X connect 4 0 3 1;
#X connect 5 0 0 0;
#X connect 5 0 0 1;
#X connect 6 0 7 0;
#X connect 7 0 26 0;
#X connect 7 0 31 0;
#X connect 7 0 9 0;
#X connect 8 0 12 0;
#X connect 9 0 10 0;
#X connect 9 0 21 1;
#X connect 10 0 29 0;
#X connect 11 0 5 1;
#X connect 12 0 7 0;
#X connect 13 0 24 0;
#X connect 14 0 24 1;
#X connect 19 0 20 0;
#X connect 19 0 12 1;
#X connect 20 0 28 0;
#X connect 21 0 27 0;
#X connect 24 0 25 0;
#X connect 24 1 8 0;
#X connect 25 0 21 0;
#X connect 26 0 27 0;
#X connect 27 0 6 0;
#X connect 27 0 30 0;
#X connect 27 0 19 0;
#X connect 28 0 12 1;
#X connect 29 0 21 1;
#X connect 30 0 11 0;
#X connect 31 0 11 0;
#X connect 32 0 3 0;
