#N canvas 231 50 437 573 10;
#X obj 18 530 dac~;
#X obj 303 35 loadbang;
#X msg 303 56 \; pd dsp 1;
#X obj 64 16 tgl 15 0 empty empty empty 17 7 0 10 -262144 -1 -1 1 1
;
#X obj 18 35 spigot~;
#X obj 148 488 *~ 0.1;
#X obj 187 467 dbtorms;
#X obj 187 407 nbx 3 14 0 100 0 1 empty empty vol(0~100) 42 7 0 11
-204800 -1 -1 50 256;
#X obj 64 158 lop~ 3000;
#X obj 148 365 tanh~;
#X obj 173 323 dbtorms;
#X obj 148 344 *~ 1;
#X obj 173 263 nbx 3 14 0 100 0 1 empty empty gain2(0~100) 42 7 0 11
-261682 -1 -1 30 256;
#X obj 173 302 + 100;
#X obj 148 386 lop~ 2500;
#X obj 64 137 hip~ 250;
#X obj 113 221 *~ 1;
#X obj 138 200 dbtorms;
#X obj 138 140 nbx 3 14 0 100 0 1 empty empty gain1(0~100) 42 7 0 11
-262130 -1 -1 30 256;
#X obj 138 179 + 90;
#X obj 113 242 clip~ -0.5 100;
#X obj 113 302 +~;
#X obj 131 281 *~;
#X obj 117 98 nbx 3 14 0 100 0 1 empty empty bass(0~100) 42 7 0 11
-203904 -1 -1 50 256;
#X obj 117 116 expr 5*(110-$f1);
#X obj 113 323 hip~ 10;
#X obj 208 347 nbx 3 14 1 100 0 1 empty empty treble(0~100) 42 7 0
11 -261234 -1 -1 50 256;
#X obj 208 365 expr 50*(10+$f1);
#X obj 138 158 * 0.3;
#X obj 187 425 expr 0.5*($f1-50);
#X obj 173 281 * 0.4;
#X obj 187 446 + 90;
#X obj 303 158 -;
#X msg 349 198 0;
#X obj 303 240 spigot;
#X obj 342 158 bng 15 250 50 0 empty empty adjust_vol 17 7 0 11 -4032
-1 -1;
#X msg 342 177 1;
#X obj 78 56 env~ 32768;
#X obj 64 425 env~ 32768;
#X obj 303 116 pipe 10;
#X obj 349 219 pipe 400;
#X obj 303 282 spigot;
#X obj 78 35 s on_off;
#X obj 342 261 r on_off;
#X obj 303 303 expr 2*$f1+70;
#X obj 64 446 s wet;
#X obj 321 137 r wet;
#X obj 18 14 adc~;
#X text 65 530 [spigot~] needs two externals: libdir \, unauthorized
[tanh~] needs an external: cyclone, f 51;
#X connect 1 0 2 0;
#X connect 3 0 4 1;
#X connect 3 0 42 0;
#X connect 4 0 0 0;
#X connect 4 0 0 1;
#X connect 4 1 15 0;
#X connect 4 1 37 0;
#X connect 5 0 0 0;
#X connect 5 0 0 1;
#X connect 6 0 5 1;
#X connect 7 0 29 0;
#X connect 8 0 16 0;
#X connect 9 0 14 0;
#X connect 10 0 11 1;
#X connect 11 0 9 0;
#X connect 12 0 30 0;
#X connect 13 0 10 0;
#X connect 14 0 5 0;
#X connect 14 0 38 0;
#X connect 15 0 8 0;
#X connect 16 0 20 0;
#X connect 17 0 16 1;
#X connect 18 0 28 0;
#X connect 19 0 17 0;
#X connect 20 0 21 0;
#X connect 20 0 22 0;
#X connect 20 0 22 1;
#X connect 21 0 25 0;
#X connect 22 0 21 1;
#X connect 23 0 24 0;
#X connect 24 0 15 1;
#X connect 25 0 11 0;
#X connect 26 0 27 0;
#X connect 27 0 14 1;
#X connect 28 0 19 0;
#X connect 29 0 31 0;
#X connect 30 0 13 0;
#X connect 31 0 6 0;
#X connect 32 0 34 0;
#X connect 33 0 40 0;
#X connect 34 0 41 0;
#X connect 35 0 36 0;
#X connect 36 0 33 0;
#X connect 36 0 34 1;
#X connect 37 0 39 0;
#X connect 38 0 45 0;
#X connect 39 0 32 0;
#X connect 40 0 34 1;
#X connect 41 0 44 0;
#X connect 43 0 41 1;
#X connect 44 0 7 0;
#X connect 46 0 32 1;
#X connect 47 0 4 0;
